<?xml version="1.0" encoding="UTF-8" standalone="no"?>
<svg width="220" height="60" viewBox="0 0 220 60" fill="none" xmlns="http://www.w3.org/2000/svg">
  <!-- AspiraSys text -->
  <path d="M14.892 41.448L10.644 30.48H6.564L2.364 41.448H0L5.412 27H11.796L17.256 41.448H14.892ZM8.628 28.692L4.584 39.084H12.672L8.628 28.692Z" fill="#1A1A1A"/>
  <path d="M23.4995 37.584C23.7555 38.112 24.0915 38.568 24.5075 38.952C24.9395 39.336 25.4355 39.636 25.9955 39.852C26.5715 40.052 27.1955 40.152 27.8675 40.152C28.7155 40.152 29.4355 40 30.0275 39.696C30.6355 39.376 31.1075 38.936 31.4435 38.376C31.7795 37.8 31.9475 37.136 31.9475 36.384C31.9475 35.6 31.8035 34.936 31.5155 34.392C31.2275 33.848 30.7555 33.4 30.0995 33.048C29.4595 32.696 28.6035 32.386 27.5315 32.116C26.6675 31.892 25.9355 31.652 25.3355 31.4C24.7355 31.132 24.2555 30.8 23.8955 30.4C23.5515 30 23.3795 29.492 23.3795 28.872C23.3795 28.216 23.5275 27.652 23.8235 27.18C24.1195 26.692 24.5355 26.32 25.0715 26.064C25.6235 25.808 26.2475 25.68 26.9435 25.68C27.6395 25.68 28.2595 25.804 28.8035 26.052C29.3635 26.3 29.8035 26.656 30.1235 27.12C30.4595 27.584 30.6435 28.132 30.6755 28.764H32.7875C32.7555 27.772 32.4995 26.92 32.0195 26.208C31.5555 25.48 30.9075 24.924 30.0755 24.54C29.2595 24.14 28.3155 23.94 27.2435 23.94C26.2515 23.94 25.3555 24.132 24.5555 24.516C23.7555 24.884 23.1235 25.412 22.6595 26.1C22.1955 26.772 21.9635 27.576 21.9635 28.512C21.9635 29.328 22.1235 30.012 22.4435 30.564C22.7795 31.1 23.2355 31.544 23.8115 31.896C24.3875 32.232 25.0395 32.5 25.7675 32.7C26.7115 32.988 27.5035 33.268 28.1435 33.54C28.7835 33.796 29.2955 34.144 29.6795 34.584C30.0635 35.016 30.2555 35.6 30.2555 36.336C30.2555 37.056 30.0755 37.672 29.7155 38.184C29.3715 38.68 28.9075 39.06 28.3235 39.324C27.7395 39.588 27.0795 39.72 26.3435 39.72C25.5115 39.72 24.7795 39.584 24.1475 39.312C23.5155 39.04 23.0115 38.652 22.6355 38.148C22.2755 37.628 22.0995 37.024 22.1075 36.336H20.0195C20.0115 37.36 20.2795 38.252 20.8235 39.012C21.3675 39.772 22.0955 40.36 23.0075 40.776C23.9195 41.192 24.9435 41.4 26.0795 41.4C27.1195 41.4 28.0595 41.204 28.8995 40.812C29.7555 40.404 30.4355 39.828 30.9395 39.084C31.4435 38.324 31.6955 37.44 31.6955 36.432C31.6955 35.552 31.4915 34.82 31.0835 34.236C30.6755 33.644 30.1195 33.168 29.4155 32.808C28.7275 32.432 27.9755 32.124 27.1595 31.884C26.2755 31.628 25.5355 31.38 24.9395 31.14C24.3595 30.884 23.9035 30.584 23.5715 30.24C23.2555 29.896 23.0995 29.44 23.0995 28.872C23.0995 28.376 23.2435 27.952 23.5315 27.6C23.8195 27.248 24.1955 26.988 24.6595 26.82C25.1395 26.636 25.6515 26.544 26.1955 26.544C26.8115 26.544 27.3555 26.656 27.8275 26.88C28.3155 27.104 28.7035 27.428 28.9915 27.852C29.2795 28.26 29.4235 28.772 29.4235 29.388H31.2075C31.2075 28.628 31.0155 27.948 30.6315 27.348C30.2475 26.74 29.7235 26.26 29.0595 25.908C28.3955 25.556 27.6355 25.38 26.7795 25.38C25.9715 25.38 25.2475 25.552 24.6075 25.896C23.9675 26.232 23.4635 26.7 23.0955 27.3C22.7435 27.884 22.5715 28.572 22.5795 29.364C22.5795 30.228 22.7635 30.924 23.1315 31.452C23.5155 31.98 24.0035 32.376 24.5955 32.64C25.1875 32.888 25.7595 33.092 26.3115 33.252C27.2555 33.516 28.0435 33.764 28.6755 33.996C29.3075 34.212 29.8115 34.536 30.1875 34.968C30.5795 35.384 30.7795 35.988 30.7875 36.78C30.7875 37.436 30.6275 38.008 30.3075 38.496C29.9875 38.982 29.5555 39.36 29.0115 39.628C28.4835 39.88 27.8915 40.008 27.2355 40.008C26.3555 40.008 25.6075 39.832 24.9915 39.48C24.3755 39.128 23.9035 38.644 23.5755 38.028C23.2635 37.412 23.1075 36.708 23.1075 35.916H21.7635C21.7635 36.86 22.0275 37.704 22.5555 38.448C23.0995 39.192 23.8435 39.764 24.7875 40.164C25.7315 40.564 26.7955 40.764 27.9795 40.764C29.0035 40.764 29.9155 40.568 30.7155 40.176C31.5315 39.784 32.1795 39.216 32.6595 38.472C33.1395 37.728 33.3795 36.828 33.3795 35.772C33.3795 34.764 33.1835 33.936 32.7915 33.288C32.3995 32.64 31.8675 32.128 31.1955 31.752C30.5395 31.36 29.8075 31.04 28.9995 30.792C28.0075 30.496 27.1795 30.22 26.5155 29.964C25.8675 29.692 25.3795 29.364 25.0515 28.98C24.7235 28.596 24.5595 28.068 24.5595 27.396C24.5595 26.724 24.7715 26.196 25.1955 25.812C25.6195 25.428 26.1795 25.236 26.8755 25.236C27.5875 25.236 28.1795 25.428 28.6515 25.812C29.1235 26.18 29.3595 26.744 29.3595 27.504H30.3795C30.3795 26.976 30.2515 26.496 29.9955 26.064C29.7395 25.632 29.3675 25.28 28.8795 25.008C28.3915 24.736 27.8115 24.6 27.1395 24.6C26.4515 24.6 25.8515 24.752 25.3395 25.056C24.8275 25.344 24.4355 25.752 24.1635 26.28C23.8915 26.808 23.7555 27.42 23.7555 28.116C23.7555 28.956 23.9315 29.652 24.2835 30.204C24.6355 30.74 25.0995 31.148 25.6755 31.428C26.2515 31.708 26.8595 31.952 27.4995 32.16C28.4435 32.448 29.2235 32.732 29.8395 33.012C30.4715 33.276 30.9675 33.632 31.3275 34.08C31.7035 34.528 31.8915 35.148 31.8915 35.94C31.8915 36.644 31.7155 37.248 31.3635 37.752C31.0275 38.24 30.5755 38.616 30.0075 38.88C29.4395 39.144 28.8155 39.276 28.1355 39.276C27.4715 39.276 26.8835 39.144 26.3715 38.88C25.8755 38.6 25.4835 38.232 25.1955 37.776C24.9235 37.32 24.7715 36.804 24.7395 36.228H23.0515C23.0675 36.728 23.2275 37.192 23.4995 37.584Z" fill="#1A1A1A"/>
  <path d="M37.5915 30.48V41.448H35.5875V30.48H33.4995V28.8H35.5875V24.588H37.5915V28.8H40.2915V30.48H37.5915ZM36.5875 27.396V25.596H38.3875V27.396H36.5875Z" fill="#1A1A1A"/>
  <path d="M47.0175 41.448V40.356C46.5615 40.74 46.0495 41.024 45.4815 41.208C44.9135 41.392 44.3255 41.484 43.7175 41.484C42.9495 41.484 42.2655 41.336 41.6655 41.04C41.0815 40.744 40.6175 40.312 40.2735 39.744C39.9455 39.16 39.7815 38.48 39.7815 37.704C39.7815 36.872 39.9855 36.2 40.3935 35.688C40.8015 35.16 41.3375 34.784 42.0015 34.56C42.6655 34.32 43.3575 34.2 44.0775 34.2C44.6295 34.2 45.1255 34.236 45.5655 34.308C46.0215 34.38 46.4775 34.492 46.9335 34.644V33.732C46.9335 32.86 46.6895 32.18 46.2015 31.692C45.7135 31.188 44.9975 30.936 44.0535 30.936C43.4215 30.936 42.8135 31.052 42.2295 31.284C41.6455 31.516 41.1095 31.86 40.6215 32.316L39.8055 30.936C40.3575 30.408 41.0095 30 41.7615 29.712C42.5295 29.424 43.3215 29.28 44.1375 29.28C45.6135 29.28 46.7095 29.652 47.4255 30.396C48.1575 31.124 48.5255 32.18 48.5295 33.564V38.748C48.5295 39.268 48.5415 39.724 48.5655 40.116C48.5895 40.508 48.6335 40.968 48.6975 41.496H47.0175V41.448ZM43.9775 40.08C44.7135 40.08 45.3735 39.944 45.9575 39.672C46.5575 39.4 47.0335 39.016 47.3855 38.52V35.916C46.9135 35.756 46.4495 35.636 45.9935 35.556C45.5535 35.476 45.0975 35.436 44.6255 35.436C43.6175 35.436 42.8335 35.628 42.2735 36.012C41.7295 36.38 41.4575 36.94 41.4575 37.692C41.4575 38.412 41.6975 38.972 42.1775 39.372C42.6735 39.772 43.2735 39.972 43.9775 39.996V40.08Z" fill="#1A1A1A"/>
  <path d="M58.7235 41.448V35.904C58.7235 34.48 58.4635 33.444 57.9435 32.796C57.4235 32.132 56.6355 31.8 55.5795 31.8C55.0115 31.8 54.4635 31.916 53.9355 32.148C53.4075 32.38 52.9475 32.704 52.5555 33.12C52.1795 33.52 51.9075 33.992 51.7395 34.536V41.448H50.0835V25.2H51.7395V33.048C52.0995 32.296 52.6795 31.716 53.4795 31.308C54.2795 30.884 55.1395 30.672 56.0595 30.672C56.9155 30.672 57.6435 30.84 58.2435 31.176C58.8435 31.512 59.3035 31.96 59.6235 32.52C59.9435 33.064 60.1635 33.692 60.2835 34.404C60.4035 35.1 60.4635 35.812 60.4635 36.54V41.496H58.7235V41.448Z" fill="#1A1A1A"/>
  <path d="M79.5633 41.448V35.352C79.5633 34.424 79.3792 33.692 79.0111 33.156C78.6431 32.62 78.0391 32.352 77.1991 32.352C76.6631 32.352 76.1671 32.476 75.7111 32.724C75.2711 32.956 74.8911 33.28 74.5711 33.696C74.2671 34.096 74.0631 34.556 73.9591 35.076V41.448H72.3271V35.352C72.3271 34.424 72.1431 33.692 71.7751 33.156C71.4071 32.62 70.7951 32.352 69.9391 32.352C69.4031 32.352 68.9111 32.48 68.4631 32.736C68.0151 32.976 67.6391 33.308 67.3351 33.732C67.0471 34.14 66.8591 34.604 66.7711 35.124V41.448H65.1151V29.52H66.7711V32.58C67.1231 31.852 67.6671 31.288 68.4031 30.888C69.1391 30.488 69.9471 30.288 70.8271 30.288C71.7911 30.288 72.5511 30.52 73.1071 30.984C73.6791 31.432 74.0551 31.992 74.2351 32.664C74.6351 31.96 75.2031 31.4 75.9391 30.984C76.6751 30.552 77.4591 30.336 78.2911 30.336C78.9871 30.336 79.5871 30.46 80.0911 30.708C80.5951 30.956 81.0031 31.296 81.3151 31.728C81.6271 32.16 81.8551 32.656 81.9991 33.216C82.1431 33.776 82.2151 34.364 82.2151 34.98V41.496H80.4991V41.448H79.5633Z" fill="#1A1A1A"/>
  <path d="M91.3795 41.448V40.356C90.9235 40.74 90.4115 41.024 89.8435 41.208C89.2755 41.392 88.6875 41.484 88.0795 41.484C87.3115 41.484 86.6275 41.336 86.0275 41.04C85.4435 40.744 84.9795 40.312 84.6355 39.744C84.3075 39.16 84.1435 38.48 84.1435 37.704C84.1435 36.872 84.3475 36.2 84.7555 35.688C85.1635 35.16 85.6995 34.784 86.3635 34.56C87.0275 34.32 87.7195 34.2 88.4395 34.2C88.9915 34.2 89.4875 34.236 89.9275 34.308C90.3835 34.38 90.8395 34.492 91.2955 34.644V33.732C91.2955 32.86 91.0515 32.18 90.5635 31.692C90.0755 31.188 89.3595 30.936 88.4155 30.936C87.7835 30.936 87.1755 31.052 86.5915 31.284C86.0075 31.516 85.4715 31.86 84.9835 32.316L84.1675 30.936C84.7195 30.408 85.3715 30 86.1235 29.712C86.8915 29.424 87.6835 29.28 88.4995 29.28C89.9755 29.28 91.0715 29.652 91.7875 30.396C92.5195 31.124 92.8875 32.18 92.8915 33.564V38.748C92.8915 39.268 92.9035 39.724 92.9275 40.116C92.9515 40.508 92.9955 40.968 93.0595 41.496H91.3795V41.448ZM88.3395 40.08C89.0755 40.08 89.7355 39.944 90.3195 39.672C90.9195 39.4 91.3955 39.016 91.7475 38.52V35.916C91.2755 35.756 90.8115 35.636 90.3555 35.556C89.9155 35.476 89.4595 35.436 88.9875 35.436C87.9795 35.436 87.1955 35.628 86.6355 36.012C86.0915 36.38 85.8195 36.94 85.8195 37.692C85.8195 38.412 86.0595 38.972 86.5395 39.372C87.0355 39.772 87.6355 39.972 88.3395 39.996V40.08Z" fill="#1A1A1A"/>
  <path d="M97.5396 41.448V29.52H99.1956V32.316C99.5476 31.548 100.068 30.936 100.756 30.48C101.444 30.024 102.252 29.796 103.18 29.796L103.396 29.796V31.428C102.532 31.428 101.764 31.62 101.092 32.004C100.42 32.388 99.8956 32.9 99.5116 33.54V41.496H97.5396V41.448Z" fill="#1A1A1A"/>
  <path d="M112.536 41.448V40.356C112.08 40.74 111.568 41.024 111 41.208C110.432 41.392 109.844 41.484 109.236 41.484C108.468 41.484 107.784 41.336 107.184 41.04C106.6 40.744 106.136 40.312 105.792 39.744C105.464 39.16 105.3 38.48 105.3 37.704C105.3 36.872 105.504 36.2 105.912 35.688C106.32 35.16 106.856 34.784 107.52 34.56C108.184 34.32 108.876 34.2 109.596 34.2C110.148 34.2 110.644 34.236 111.084 34.308C111.54 34.38 111.996 34.492 112.452 34.644V33.732C112.452 32.86 112.208 32.18 111.72 31.692C111.232 31.188 110.516 30.936 109.572 30.936C108.94 30.936 108.332 31.052 107.748 31.284C107.164 31.516 106.628 31.86 106.14 32.316L105.324 30.936C105.876 30.408 106.528 30 107.28 29.712C108.048 29.424 108.84 29.28 109.656 29.28C111.132 29.28 112.228 29.652 112.944 30.396C113.676 31.124 114.044 32.18 114.048 33.564V38.748C114.048 39.268 114.06 39.724 114.084 40.116C114.108 40.508 114.152 40.968 114.216 41.496H112.536V41.448ZM109.5 40.08C110.236 40.08 110.896 39.944 111.48 39.672C112.08 39.4 112.556 39.016 112.908 38.52V35.916C112.432 35.756 111.968 35.636 111.516 35.556C111.076 35.476 110.616 35.436 110.148 35.436C109.14 35.436 108.356 35.628 107.796 36.012C107.236 36.38 106.964 36.94 106.964 37.692C106.964 38.412 107.204 38.972 107.688 39.372C108.184 39.772 108.78 39.972 109.488 39.996L109.5 40.08Z" fill="#1A1A1A"/>
  <path d="M123.924 41.448C123.924 44.528 122.188 46.068 118.716 46.068C118.02 46.068 117.34 46.004 116.676 45.876C116.012 45.764 115.444 45.592 114.972 45.36L115.5 43.8C115.964 44.032 116.468 44.2 117.012 44.304C117.556 44.408 118.1 44.46 118.644 44.46C119.42 44.46 120.056 44.356 120.552 44.148C121.064 43.94 121.44 43.624 121.68 43.2C121.936 42.776 122.064 42.24 122.064 41.592V38.712C121.712 39.4 121.18 39.944 120.468 40.344C119.772 40.744 118.972 40.944 118.068 40.944C117.148 40.944 116.332 40.744 115.62 40.344C114.908 39.944 114.34 39.352 113.916 38.568C113.492 37.768 113.28 36.816 113.28 35.712C113.28 34.64 113.5 33.712 113.94 32.928C114.38 32.128 114.968 31.516 115.704 31.092C116.44 30.652 117.26 30.432 118.164 30.432C119.044 30.432 119.816 30.632 120.48 31.032C121.16 31.432 121.668 31.952 122.004 32.592V30.624H123.924V41.448ZM118.38 39.384C119.028 39.384 119.604 39.248 120.108 38.976C120.628 38.704 121.032 38.316 121.32 37.812C121.624 37.292 121.792 36.68 121.824 35.976V35.304C121.776 34.632 121.596 34.048 121.296 33.552C120.996 33.04 120.6 32.648 120.108 32.376C119.616 32.088 119.052 31.944 118.416 31.944C117.728 31.944 117.124 32.088 116.604 32.376C116.084 32.648 115.672 33.044 115.368 33.564C115.08 34.084 114.936 34.704 114.936 35.424C114.936 36.128 115.08 36.748 115.368 37.284C115.672 37.82 116.088 38.244 116.616 38.556C117.144 39.108 117.708 39.384 118.38 39.384Z" fill="#1A1A1A"/>
  <path d="M127.8 30.48V41.448H125.796V30.48H123.708V28.8H125.796V24.588H127.8V28.8H130.5V30.48H127.8ZM126.8 27.396V25.596H128.6V27.396H126.8Z" fill="#1A1A1A"/>
  <path d="M138.228 41.448V40.356C137.772 40.74 137.26 41.024 136.692 41.208C136.124 41.392 135.536 41.484 134.928 41.484C134.16 41.484 133.476 41.336 132.876 41.04C132.292 40.744 131.828 40.312 131.484 39.744C131.156 39.16 130.992 38.48 130.992 37.704C130.992 36.872 131.196 36.2 131.604 35.688C132.012 35.16 132.548 34.784 133.212 34.56C133.876 34.32 134.568 34.2 135.288 34.2C135.84 34.2 136.336 34.236 136.776 34.308C137.232 34.38 137.688 34.492 138.144 34.644V33.732C138.144 32.86 137.9 32.18 137.412 31.692C136.924 31.188 136.208 30.936 135.264 30.936C134.632 30.936 134.024 31.052 133.44 31.284C132.856 31.516 132.32 31.86 131.832 32.316L131.016 30.936C131.568 30.408 132.22 30 132.972 29.712C133.74 29.424 134.532 29.28 135.348 29.28C136.824 29.28 137.92 29.652 138.636 30.396C139.368 31.124 139.736 32.18 139.74 33.564V38.748C139.74 39.268 139.752 39.724 139.776 40.116C139.8 40.508 139.844 40.968 139.908 41.496H138.228V41.448ZM135.192 40.08C135.928 40.08 136.588 39.944 137.172 39.672C137.772 39.4 138.248 39.016 138.6 38.52V35.916C138.124 35.756 137.66 35.636 137.208 35.556C136.768 35.476 136.308 35.436 135.84 35.436C134.832 35.436 134.048 35.628 133.488 36.012C132.928 36.38 132.656 36.94 132.656 37.692C132.656 38.412 132.896 38.972 133.38 39.372C133.876 39.772 134.472 39.972 135.18 39.996L135.192 40.08Z" fill="#1A1A1A"/>
  
  <!-- Colorful triangles -->
  <path d="M182 10L160 32L175 48L182 10Z" fill="#5A9BD5"/>
  <path d="M210 25L182 10L192 50L210 25Z" fill="#DF5A49"/>
  <path d="M175 48L192 50L210 25L175 48Z" fill="#70AD46"/>
</svg>